<svg aria-hidden="true" style="position: absolute; width: 0; height: 0; overflow: hidden;" version="1.1" xmlns="http://www.w3.org/2000/svg" xmlns:xlink="http://www.w3.org/1999/xlink">
<defs>
	<symbol id="icon-clipboard" viewBox="0 0 24 24">
		<path d="M18 24.031h-13.5c-0.829 0-1.5-0.67-1.5-1.497v-18.073c0-0.827 0.671-1.496 1.5-1.496h3.75v1.559h-3c-0.414 0-0.75 0.335-0.75 0.748v16.513c0 0.415 0.336 0.748 0.75 0.748h12c0.415 0 0.75-0.334 0.75-0.748v-16.513c0-0.414-0.335-0.748-0.75-0.748h-3v-1.559h3.75c0.828 0 1.5 0.67 1.5 1.496v18.073c0 0.827-0.672 1.497-1.5 1.497zM8.25 9.014h8.25v0.748h-8.25v-0.748zM8.25 11.26h8.25v0.748h-8.25v-0.748zM8.25 13.506h8.25v0.748h-8.25v-0.748zM8.25 15.752h8.25v0.748h-8.25v-0.748zM16.5 20.989h-8.25v-0.747h8.25v0.747zM8.25 17.997h8.25v0.748h-8.25v-0.748zM6 8.999h0.75v0.748h-0.75v-0.748zM6 11.245h0.75v0.748h-0.75v-0.748zM6 13.489h0.75v0.749h-0.75v-0.749zM6 15.735h0.75v0.748h-0.75v-0.748zM6.75 20.975h-0.75v-0.748h0.75v0.748zM6 17.981h0.75v0.748h-0.75v-0.748zM15.75 5.318c0.415 0 0.75 0.335 0.75 0.749s0 1.45 0 1.45h-10.5c0 0 0-1.036 0-1.45s0.335-0.749 0.75-0.749h2.25c0 0 0.009-1.064 0.009-2.281 0-1.263 0.975-2.319 2.241-2.319s2.275 1.11 2.275 2.326c0 1.31-0.025 2.273-0.025 2.273h2.25zM11.25 2.965c-0.415 0-0.75 0.334-0.75 0.748s0.335 0.748 0.75 0.748 0.75-0.335 0.75-0.748c0-0.413-0.335-0.748-0.75-0.748z"></path>
	</symbol>
	<symbol id="icon-information-outline" viewBox="0 0 24 24">
		<path d="M3.516 20.484c-2.26-2.185-3.663-5.244-3.663-8.631 0-6.627 5.373-12 12-12 3.387 0 6.446 1.403 8.628 3.66l0.003 0.003c2.084 2.156 3.369 5.096 3.369 8.337 0 6.627-5.373 12-12 12-3.24 0-6.181-1.284-8.34-3.372l0.003 0.003zM18.792 18.792c1.738-1.738 2.813-4.14 2.813-6.792 0-5.305-4.3-9.605-9.605-9.605-2.652 0-5.054 1.075-6.792 2.813v0c-1.738 1.738-2.813 4.14-2.813 6.792 0 5.305 4.3 9.605 9.605 9.605 2.652 0 5.054-1.075 6.792-2.813v0zM10.8 13.2v-2.4h2.4v7.2h-2.4v-4.8zM10.8 6h2.4v2.4h-2.4v-2.4z">
		</path>
	</symbol>
	<symbol id="icon-directions" viewBox="0 0 24 24">
		<path d="M12 0l12 12-12 12-12-12 12-12zM7.2 12v3.6h2.4v-3.6h3.6v3.6l4.8-4.8-4.8-4.8v3.6h-3.6c-1.325 0-2.4 1.075-2.4 2.4v0z"></path>
	</symbol>
	<symbol id="icon-circle-right" viewBox="0 0 24 24">
		<path d="M12 0c-6.627 0-12 5.373-12 12s5.373 12 12 12 12-5.373 12-12-5.373-12-12-12zM12 21.75c-5.385 0-9.75-4.365-9.75-9.75s4.365-9.75 9.75-9.75 9.75 4.365 9.75 9.75-4.365 9.75-9.75 9.75z"></path>
		<path d="M8.314 16.564l2.121 2.121 6.686-6.686-6.686-6.686-2.121 2.121 4.564 4.564z"></path>
	</symbol>
	<symbol id="icon-circle-left" viewBox="0 0 24 24">
		<path d="M12 24c6.627 0 12-5.373 12-12s-5.373-12-12-12-12 5.373-12 12 5.373 12 12 12zM12 2.25c5.385 0 9.75 4.365 9.75 9.75s-4.365 9.75-9.75 9.75-9.75-4.365-9.75-9.75 4.365-9.75 9.75-9.75z"></path>
		<path d="M15.686 7.436l-2.121-2.121-6.686 6.686 6.686 6.686 2.121-2.121-4.564-4.564z"></path>
	</symbol>
	<symbol id="icon-telegram" viewBox="0 0 28 28">
<path d="M18.578 20.422l2.297-10.828c0.203-0.953-0.344-1.328-0.969-1.094l-13.5 5.203c-0.922 0.359-0.906 0.875-0.156 1.109l3.453 1.078 8.016-5.047c0.375-0.25 0.719-0.109 0.438 0.141l-6.484 5.859-0.25 3.563c0.359 0 0.516-0.156 0.703-0.344l1.687-1.625 3.5 2.578c0.641 0.359 1.094 0.172 1.266-0.594zM28 14c0 7.734-6.266 14-14 14s-14-6.266-14-14 6.266-14 14-14 14 6.266 14 14z"></path>
</symbol>
	<symbol id="icon-twitter" viewBox="0 0 24 24">
<path d="M12-0.026c-6.631 0-12.026 5.394-12.026 12.025s5.396 12.026 12.026 12.026 12.026-5.394 12.026-12.026-5.395-12.025-12.026-12.025zM12 23.224c-6.189 0-11.224-5.035-11.224-11.224s5.035-11.224 11.224-11.224 11.224 5.036 11.224 11.224-5.035 11.224-11.224 11.224zM18.596 8.284c0.082-0.153 0.151-0.314 0.205-0.482 0.050-0.159-0.001-0.332-0.132-0.436s-0.311-0.115-0.454-0.032c-0.385 0.229-0.799 0.397-1.235 0.505-0.524-0.473-1.211-0.74-1.922-0.74-1.579 0-2.863 1.284-2.863 2.861 0 0.040 0.001 0.079 0.002 0.118-1.676-0.209-3.224-1.061-4.301-2.383-0.082-0.102-0.21-0.155-0.342-0.146-0.131 0.010-0.249 0.084-0.315 0.199-0.253 0.435-0.388 0.932-0.388 1.439 0 0.48 0.119 0.942 0.338 1.351-0.055 0.009-0.11 0.029-0.16 0.059-0.122 0.073-0.198 0.219-0.198 0.361 0 0.851 0.379 1.633 0.989 2.164-0.009 0.008-0.017 0.017-0.026 0.026-0.094 0.106-0.125 0.254-0.081 0.389 0.263 0.821 0.873 1.46 1.638 1.774-0.781 0.386-1.688 0.537-2.555 0.434-0.183-0.016-0.361 0.087-0.425 0.264-0.062 0.175 0.004 0.371 0.161 0.473 1.194 0.765 2.573 1.169 3.989 1.169 4.635 0 7.406-3.765 7.406-7.405 0-0.041 0-0.082-0.001-0.123 0.448-0.35 0.836-0.767 1.156-1.245 0.099-0.148 0.088-0.344-0.026-0.481-0.113-0.134-0.3-0.181-0.462-0.113zM17.287 9.601c-0.11 0.080-0.173 0.209-0.166 0.346 0.005 0.099 0.007 0.2 0.007 0.299 0 3.246-2.47 6.604-6.603 6.604-0.742 0-1.473-0.125-2.165-0.366 0.829-0.158 1.606-0.511 2.284-1.043 0.134-0.105 0.187-0.282 0.133-0.443s-0.203-0.27-0.373-0.273c-0.668-0.014-1.274-0.346-1.646-0.871 0.19-0.013 0.376-0.044 0.557-0.093 0.179-0.049 0.301-0.215 0.295-0.4s-0.139-0.343-0.322-0.38c-0.752-0.151-1.343-0.707-1.561-1.429 0.2 0.050 0.404 0.079 0.609 0.086 0.176-0.001 0.34-0.109 0.395-0.278s-0.010-0.356-0.159-0.455c-0.574-0.384-0.916-1.024-0.916-1.715 0-0.167 0.020-0.332 0.059-0.493 1.298 1.331 3.060 2.135 4.926 2.229 0.132 0.001 0.247-0.046 0.328-0.143s0.111-0.225 0.082-0.348c-0.035-0.152-0.053-0.311-0.053-0.47 0-1.136 0.925-2.060 2.061-2.060 0.568 0 1.116 0.237 1.504 0.651 0.095 0.101 0.234 0.146 0.37 0.119 0.124-0.025 0.246-0.053 0.367-0.086-0.054 0.040-0.11 0.078-0.169 0.113-0.162 0.097-0.234 0.295-0.173 0.473s0.243 0.296 0.427 0.268c0.046-0.005 0.091-0.011 0.136-0.017-0.074 0.062-0.152 0.121-0.232 0.178z"></path>
</symbol>
	<symbol id="icon-gmail" viewBox="0 0 32 32">
<path fill="#d14836" style="fill: var(--color1, #d14836)" d="M32 6v20c0 1.133-0.867 2-2 2h-2v-18.151l-12 8.617-12-8.617v18.151h-2c-1.135 0-2-0.867-2-2v-20c0-0.567 0.216-1.067 0.575-1.424 0.359-0.363 0.86-0.576 1.425-0.576h0.667l13.333 9.667 13.333-9.667h0.667c0.567 0 1.067 0.216 1.425 0.576 0.36 0.357 0.575 0.857 0.575 1.424z"></path>
</symbol>
<symbol id="icon-phone" viewBox="0 0 24 24">
<path d="M23 16.92c0.016-0.714-0.236-1.404-0.673-1.943-0.46-0.566-1.129-0.967-1.925-1.080-0.8-0.098-1.695-0.314-2.586-0.646-0.433-0.159-0.893-0.218-1.344-0.174-0.663 0.064-1.307 0.349-1.819 0.855l-0.72 0.72c-1.77-1.117-3.36-2.667-4.583-4.589l0.726-0.726c0.322-0.33 0.563-0.726 0.707-1.156 0.212-0.632 0.214-1.336-0.039-2.011-0.289-0.753-0.518-1.644-0.644-2.595-0.104-0.714-0.456-1.345-0.963-1.804-0.539-0.486-1.256-0.779-2.027-0.771h-2.996c-0.088 0-0.182 0.004-0.273 0.012-0.824 0.075-1.542 0.478-2.033 1.066s-0.758 1.367-0.683 2.199c0.3 3.076 1.365 6.243 3.216 9.102 1.502 2.413 3.648 4.623 6.298 6.306 2.568 1.697 5.684 2.862 9.086 3.231 0.092 0.009 0.191 0.013 0.288 0.013 0.828-0.003 1.578-0.343 2.118-0.887s0.873-1.297 0.87-2.121zM21 16.92v3c0.001 0.28-0.109 0.53-0.29 0.712s-0.429 0.295-0.706 0.296c-3.149-0.336-5.961-1.391-8.263-2.912-2.428-1.543-4.359-3.537-5.702-5.694-1.697-2.62-2.655-5.481-2.924-8.238-0.024-0.268 0.064-0.526 0.229-0.724s0.403-0.33 0.678-0.355l3.088-0.005c0.271-0.003 0.507 0.094 0.687 0.256 0.17 0.154 0.288 0.366 0.323 0.608 0.142 1.072 0.408 2.117 0.757 3.025 0.081 0.216 0.080 0.447 0.010 0.658-0.049 0.145-0.131 0.281-0.242 0.395l-1.262 1.261c-0.324 0.324-0.379 0.814-0.162 1.201 1.584 2.785 3.839 4.957 6.381 6.378 0.397 0.222 0.882 0.144 1.195-0.166l1.27-1.27c0.166-0.164 0.377-0.257 0.598-0.279 0.152-0.015 0.31 0.005 0.459 0.060 1.022 0.381 2.070 0.636 3.034 0.754 0.241 0.034 0.462 0.166 0.615 0.355 0.147 0.181 0.231 0.412 0.226 0.682z"></path>
</symbol>
	<symbol id="icon-home" viewBox="0 0 24 24">
<path d="M2.386 8.211c-0.236 0.184-0.386 0.469-0.386 0.789v11c0 0.828 0.337 1.58 0.879 2.121s1.293 0.879 2.121 0.879h14c0.828 0 1.58-0.337 2.121-0.879s0.879-1.293 0.879-2.121v-11c-0.001-0.3-0.134-0.593-0.386-0.789l-9-7c-0.358-0.275-0.861-0.285-1.228 0zM16 21v-9c0-0.552-0.448-1-1-1h-6c-0.552 0-1 0.448-1 1v9h-3c-0.276 0-0.525-0.111-0.707-0.293s-0.293-0.431-0.293-0.707v-10.511l8-6.222 8 6.222v10.511c0 0.276-0.111 0.525-0.293 0.707s-0.431 0.293-0.707 0.293zM10 21v-8h4v8z"></path>
</symbol>

	<symbol id="icon-chevron-thin-right" viewBox="0 0 20 20">
<title>chevron-thin-right</title>
<path d="M13.25 10l-7.141-7.42c-0.268-0.27-0.268-0.707 0-0.979 0.268-0.27 0.701-0.27 0.969 0l7.83 7.908c0.268 0.271 0.268 0.709 0 0.979l-7.83 7.908c-0.268 0.271-0.701 0.27-0.969 0s-0.268-0.707 0-0.979l7.141-7.417z"></path>
</symbol>
	
<!-- <symbol id="icon-home" viewBox="0 0 32 32">
<path d="M32 18.451l-16-12.42-16 12.42v-5.064l16-12.42 16 12.42zM28 18v12h-8v-8h-8v8h-8v-12l12-9z"></path>
</symbol> -->
<symbol id="icon-aid-kit" viewBox="0 0 32 32">
<path d="M28 8h-6v-4c0-1.1-0.9-2-2-2h-8c-1.1 0-2 0.9-2 2v4h-6c-2.2 0-4 1.8-4 4v16c0 2.2 1.8 4 4 4h24c2.2 0 4-1.8 4-4v-16c0-2.2-1.8-4-4-4zM12 4h8v4h-8v-4zM24 22h-6v6h-4v-6h-6v-4h6v-6h4v6h6v4z"></path>
</symbol>
<symbol id="icon-lab" viewBox="0 0 32 32">
<path d="M29.884 25.14l-9.884-16.47v-6.671h1c0.55 0 1-0.45 1-1s-0.45-1-1-1h-10c-0.55 0-1 0.45-1 1s0.45 1 1 1h1v6.671l-9.884 16.47c-2.264 3.773-0.516 6.86 3.884 6.86h20c4.4 0 6.148-3.087 3.884-6.86zM7.532 20l6.468-10.779v-7.221h4v7.221l6.468 10.779h-16.935z"></path>
</symbol>
<symbol id="icon-target" viewBox="0 0 32 32">
<path d="M32 14h-3.154c-0.864-5.57-5.276-9.982-10.846-10.846v-3.154h-4v3.154c-5.57 0.864-9.982 5.276-10.846 10.846h-3.154v4h3.154c0.864 5.57 5.276 9.982 10.846 10.846v3.154h4v-3.154c5.57-0.864 9.982-5.276 10.846-10.846h3.154v-4zM24.776 14h-3.118c-0.603-1.705-1.953-3.056-3.658-3.658v-3.118c3.36 0.765 6.010 3.416 6.776 6.776zM16 18c-1.105 0-2-0.895-2-2s0.895-2 2-2c1.105 0 2 0.895 2 2s-0.895 2-2 2zM14 7.224v3.118c-1.705 0.603-3.056 1.953-3.658 3.658h-3.118c0.765-3.36 3.416-6.010 6.776-6.776zM7.224 18h3.118c0.603 1.705 1.953 3.056 3.658 3.658v3.118c-3.36-0.765-6.010-3.416-6.776-6.776zM18 24.776v-3.118c1.705-0.603 3.056-1.953 3.658-3.658h3.118c-0.765 3.36-3.416 6.010-6.776 6.776z"></path>
</symbol>
</defs>
</svg>
